<?xml version="1.0" standalone="no"?>
<!DOCTYPE svg PUBLIC "-//W3C//DTD SVG 20010904//EN"
 "http://www.w3.org/TR/2001/REC-SVG-20010904/DTD/svg10.dtd">
<svg version="1.0" xmlns="http://www.w3.org/2000/svg"
 width="120.000000pt" height="50.000000pt" viewBox="0 0 120.000000 50.000000"
 preserveAspectRatio="xMidYMid meet">

<g transform="translate(0.000000,50.000000) scale(0.100000,-0.100000)"
fill="#000000" stroke="none">
<path d="M131 317 c-7 -9 -8 -34 -3 -73 6 -54 9 -59 32 -59 23 0 26 5 32 59 8
63 0 86 -32 86 -10 0 -23 -6 -29 -13z m53 -5 c3 -5 2 -34 -1 -65 -5 -45 -9
-57 -23 -57 -14 0 -18 12 -23 57 -3 31 -4 60 -1 65 7 10 41 10 48 0z"/>
<path d="M713 250 c0 -36 2 -50 4 -32 2 17 2 47 0 65 -2 17 -4 3 -4 -33z"/>
<path d="M851 298 c0 -10 -6 -18 -13 -18 -9 0 -9 -3 0 -12 7 -7 12 -24 12 -39
0 -28 16 -47 28 -34 4 4 1 10 -5 12 -16 6 -17 45 -1 61 8 8 9 12 1 12 -6 0
-14 8 -16 18 -4 16 -5 16 -6 0z"/>
<path d="M524 265 c-8 -20 4 -35 27 -35 10 0 19 -5 19 -11 0 -7 -10 -9 -25 -6
-16 3 -24 0 -22 -7 6 -18 43 -18 57 0 12 14 12 18 -5 30 -10 8 -25 14 -33 14
-7 0 -10 5 -7 10 4 6 16 8 27 4 14 -4 18 -2 14 5 -10 16 -46 14 -52 -4z"/>
<path d="M610 266 c-28 -35 11 -93 48 -70 35 22 22 84 -18 84 -10 0 -23 -7
-30 -14z m48 -13 c12 -24 4 -43 -18 -43 -10 0 -20 6 -23 13 -5 15 10 47 23 47
5 0 13 -8 18 -17z"/>
<path d="M740 246 c0 -18 6 -38 13 -44 13 -10 64 -10 60 1 -2 4 -4 24 -4 45
l-2 37 -6 -35 c-9 -50 -41 -55 -41 -6 0 20 -4 36 -10 36 -5 0 -10 -15 -10 -34z"/>
<path d="M903 235 c0 -27 2 -38 4 -22 2 15 2 37 0 50 -2 12 -4 0 -4 -28z"/>
<path d="M941 266 c-18 -22 -6 -63 21 -72 30 -9 60 28 49 59 -10 27 -52 34
-70 13z m49 -11 c16 -20 5 -45 -20 -45 -14 0 -20 7 -20 23 0 38 18 48 40 22z"/>
<path d="M1030 240 c0 -22 5 -42 10 -45 6 -4 10 8 10 28 0 21 6 37 14 40 19 8
26 -1 26 -35 0 -15 5 -28 11 -28 6 0 9 16 7 38 -3 35 -5 37 -40 39 -38 1 -38
1 -38 -37z"/>
<path d="M1137 273 c-15 -14 -6 -33 18 -39 14 -3 25 -11 25 -16 0 -6 -11 -8
-25 -6 -14 3 -25 2 -25 -3 0 -12 35 -20 54 -13 26 10 19 34 -14 48 -35 14 -29
29 8 19 17 -4 23 -2 18 6 -8 12 -48 15 -59 4z"/>
</g>
</svg>
