<?xml version="1.0" standalone="no"?>
<!DOCTYPE svg PUBLIC "-//W3C//DTD SVG 20010904//EN"
 "http://www.w3.org/TR/2001/REC-SVG-20010904/DTD/svg10.dtd">
<svg version="1.0" xmlns="http://www.w3.org/2000/svg"
 width="890.000000pt" height="631.000000pt" viewBox="0 0 890.000000 631.000000"
 preserveAspectRatio="xMidYMid meet">

<g transform="translate(0.000000,631.000000) scale(0.100000,-0.100000)"
fill="#000000" stroke="none">
<path d="M4123 6040 c-762 -64 -1437 -386 -1962 -936 -110 -115 -246 -289
-314 -403 -44 -73 -44 -74 -30 -111 18 -46 34 -50 216 -50 l128 0 -3 -157 -3
-158 -30 1 c-42 0 -164 23 -200 37 -16 6 -37 10 -47 9 -9 -2 -19 2 -23 8 -3 5
-17 10 -29 10 -13 0 -40 7 -60 15 -20 8 -39 14 -42 13 -3 -2 -12 11 -19 27
-13 29 -13 29 -14 5 -1 -22 -3 -23 -12 -7 -6 9 -8 27 -4 40 8 33 -41 -65 -91
-181 -131 -306 -206 -687 -207 -1057 -1 -262 31 -501 95 -722 l21 -73 170 0
171 0 -48 -30 c-50 -32 -76 -77 -79 -135 l-2 -32 -74 -7 c-41 -3 -97 -6 -125
-6 l-51 0 2 -723 1 -722 146 -3 146 -3 0 496 0 495 45 0 c38 0 45 3 45 20 0
11 5 20 11 20 6 0 8 -9 4 -20 -6 -20 -2 -20 1135 -20 l1141 0 -6 23 c-4 12
-20 46 -36 75 l-29 52 23 0 c12 0 56 -16 97 -36 129 -62 173 -74 282 -74 79 0
98 3 98 15 0 12 -12 13 -62 9 -89 -9 -169 9 -277 61 -52 25 -114 49 -138 52
-38 5 -47 11 -66 44 -26 45 -55 58 -150 66 l-67 6 -9 36 c-26 97 -41 180 -41
220 0 57 -32 111 -66 111 -13 0 -48 -15 -77 -34 -41 -27 -66 -35 -119 -40 -66
-6 -68 -6 -68 16 0 13 -12 41 -25 63 -19 31 -25 54 -25 100 0 59 -2 62 -44
104 l-44 43 -74 -21 c-40 -12 -81 -25 -91 -27 -14 -5 -17 -1 -13 18 2 13 -6
81 -18 151 -16 94 -27 132 -43 149 -12 13 -33 49 -47 81 l-25 57 -63 0 c-45 0
-71 -6 -92 -19 -17 -11 -35 -17 -40 -14 -6 3 -8 3 -4 -2 10 -11 -59 -58 -72
-50 -6 4 -9 1 -8 -5 2 -6 -25 -27 -59 -45 -39 -22 -60 -29 -56 -20 3 8 0 15
-6 15 -6 0 -11 -6 -11 -14 0 -8 -4 -17 -8 -20 -13 -8 -11 28 2 36 6 4 7 11 2
15 -4 4 -14 -1 -22 -11 -8 -11 -14 -15 -14 -9 0 7 7 18 15 27 15 14 11 46 -6
46 -5 0 -9 7 -9 16 0 18 -23 44 -40 44 -15 0 -40 25 -40 42 0 7 -18 31 -40 52
-22 22 -40 45 -40 53 0 7 -7 13 -15 13 -18 0 -64 49 -65 68 0 6 -3 12 -8 12
-4 0 -18 18 -32 40 -14 22 -28 40 -32 40 -5 0 -8 9 -8 20 0 11 -6 20 -13 20
-23 0 -57 45 -57 76 0 37 42 222 75 330 57 185 245 550 245 475 0 -6 25 -37
55 -69 30 -33 55 -62 55 -65 0 -3 -23 -22 -51 -42 -32 -25 -47 -41 -41 -47 7
-7 30 5 67 33 56 42 57 42 83 25 15 -9 46 -26 70 -36 23 -11 42 -21 42 -23 0
-2 -7 -25 -16 -51 -9 -26 -14 -50 -11 -53 11 -10 24 6 37 47 7 23 16 43 20 45
3 2 32 -3 65 -11 33 -7 88 -14 123 -14 l62 0 0 -80 c0 -64 3 -80 15 -80 12 0
15 15 15 78 l0 79 87 21 c48 12 91 18 95 14 4 -4 14 -25 21 -47 14 -39 37 -59
37 -32 0 8 -7 31 -15 50 -21 50 -20 54 18 73 17 9 56 34 85 56 l53 39 72 -55
c45 -35 75 -52 81 -46 5 5 8 11 5 13 -6 5 -133 100 -137 103 -2 1 18 33 44 72
l47 71 49 -20 c58 -23 58 -23 58 -6 0 8 -21 20 -47 28 -38 12 -47 20 -45 35 1
10 5 40 8 66 l7 47 103 3 c136 4 142 22 8 26 l-101 3 -12 68 c-6 38 -13 75
-16 83 -4 9 11 19 50 32 30 11 55 23 55 28 0 12 -22 10 -70 -7 -23 -8 -44 -15
-45 -15 -2 0 -13 17 -26 38 -12 20 -37 56 -56 79 l-34 42 76 51 c42 28 73 56
69 61 -6 10 -9 9 -111 -59 l-52 -34 -59 39 c-32 21 -73 45 -90 52 -37 15 -37
16 -17 64 8 20 15 44 15 53 0 29 -25 8 -40 -34 -9 -22 -18 -43 -20 -46 -3 -2
-32 2 -65 10 -33 7 -81 14 -107 14 l-48 0 0 101 c0 76 -3 100 -12 97 -9 -3
-14 -35 -16 -100 l-3 -96 -34 -4 -35 -4 0 118 0 118 193 -1 c179 -1 504 -13
464 -17 -22 -2 -55 -32 -36 -32 18 0 -31 -40 -50 -41 -12 0 -11 -3 4 -9 11 -5
14 -9 7 -9 -7 -1 -10 -6 -6 -13 5 -8 2 -9 -12 -4 -10 4 -15 4 -11 0 4 -4 -11
-15 -33 -25 -22 -10 -40 -20 -40 -23 0 -2 49 15 110 40 229 92 474 147 758
169 l82 7 0 349 0 349 320 0 c342 0 344 0 300 -48 -11 -12 -20 -24 -20 -28 0
-11 -153 -159 -186 -180 -16 -11 -37 -29 -48 -42 -10 -13 -20 -21 -23 -18 -12
12 -183 -203 -183 -230 0 -7 -6 -19 -13 -26 -8 -7 -16 -29 -19 -48 -9 -54 -12
-65 -21 -71 -5 -3 31 -9 80 -13 286 -22 523 -78 785 -185 l95 -38 -24 49 c-13
28 -28 55 -34 61 -5 7 -17 21 -27 33 -9 11 -24 23 -32 27 -8 3 51 6 133 6
l147 1 0 -135 0 -135 58 -37 c110 -70 278 -202 365 -287 50 -49 93 -84 99 -80
7 4 8 3 4 -4 -4 -7 19 -43 54 -84 96 -113 195 -269 276 -433 134 -274 197
-526 211 -837 l6 -148 276 -1 c152 0 299 -4 326 -9 28 -4 44 -8 36 -9 -8 0
-19 -8 -25 -16 -12 -17 -169 -75 -203 -75 -12 0 -25 -5 -28 -10 -3 -5 -16 -10
-28 -10 -12 0 -47 -9 -76 -20 -30 -11 -73 -22 -95 -25 -23 -3 -57 -10 -76 -15
-19 -6 -52 -10 -72 -10 -32 0 -38 3 -39 23 0 12 -14 -43 -30 -123 -76 -374
-241 -721 -471 -991 -26 -31 -48 -59 -48 -63 0 -3 35 -6 78 -5 52 0 71 3 57 9
-18 8 -18 9 -2 9 10 1 15 5 12 11 -3 6 1 7 10 4 16 -6 150 26 219 52 21 8 41
13 44 10 2 -3 13 -1 23 4 16 9 18 5 21 -42 2 -30 8 -53 16 -56 9 -3 12 47 14
225 l2 228 6 -225 5 -225 28 -3 27 -3 0 206 c0 135 3 204 10 200 6 -4 10 -83
10 -206 l0 -199 243 0 244 0 -5 29 c-2 16 1 32 7 35 7 5 11 -5 11 -28 0 -20 5
-36 10 -36 6 0 10 9 10 19 0 11 5 23 10 26 6 4 10 -5 10 -19 0 -16 6 -26 15
-26 13 0 15 -61 15 -490 l0 -490 38 1 c36 1 36 2 7 8 -28 6 -50 41 -26 41 7 0
10 146 11 451 0 248 3 455 6 460 3 5 -1 6 -9 3 -15 -5 -30 27 -28 58 1 9 -3
19 -9 23 -7 5 -8 11 -1 19 11 13 20 376 9 376 -4 0 -11 -7 -16 -16 -6 -11 -11
-13 -16 -5 -4 6 -3 11 2 11 13 0 85 220 116 351 70 301 95 695 61 979 -41 346
-125 628 -282 947 -121 248 -274 467 -485 694 l-107 117 -210 4 c-115 2 -213
7 -217 10 -8 8 22 112 41 143 7 11 15 32 19 47 3 15 13 33 21 41 13 14 7 21
-53 65 -129 94 -296 187 -464 256 -88 37 -143 49 -77 18 20 -9 37 -20 38 -25
3 -18 27 -47 40 -47 8 0 11 -3 8 -7 -4 -3 0 -17 9 -31 10 -15 16 -48 17 -92 1
-60 -3 -73 -32 -119 -38 -58 -66 -82 -161 -133 -78 -42 -254 -81 -344 -76 -57
3 -60 5 -69 33 -14 48 -13 532 2 584 l13 44 74 -6 c41 -4 74 -5 74 -2 0 16
-282 75 -475 100 -147 19 -464 27 -602 15z m11 -78 c74 -2 87 -4 74 -14 -8 -7
-21 -40 -27 -73 -19 -90 -64 -149 -136 -179 -81 -34 -143 -14 -222 72 -33 36
-46 61 -60 114 -10 37 -22 69 -28 70 -16 3 193 13 255 12 30 0 95 -1 144 -2z
m-993 -1007 c179 -46 325 -176 379 -336 18 -52 21 -81 18 -155 -3 -81 -8 -100
-41 -166 -155 -315 -618 -406 -908 -178 -70 54 -114 110 -153 190 -29 61 -31
72 -31 176 0 107 1 112 38 186 117 238 411 357 698 283z m-1024 -1692 c-2 -16
-4 -3 -4 27 0 30 2 43 4 28 2 -16 2 -40 0 -55z m410 -359 c-3 -3 -12 -4 -19
-1 -8 3 -5 6 6 6 11 1 17 -2 13 -5z m43 -87 c0 -2 -8 -11 -18 -20 -15 -14 -19
-15 -19 -2 0 8 4 12 8 9 4 -2 10 0 14 6 6 10 15 14 15 7z m-83 -119 c-3 -8 -6
-5 -6 6 -1 11 2 17 5 13 3 -3 4 -12 1 -19z m4603 -968 c0 -22 -3 -40 -7 -40
-9 0 -14 49 -8 68 8 24 15 12 15 -28z"/>
<path d="M3982 4350 c-10 -27 -8 -31 19 -51 l29 -21 20 24 c27 32 25 42 -15
61 -45 21 -41 22 -53 -13z"/>
<path d="M3866 4318 c-22 -31 -21 -36 20 -55 34 -17 36 -17 50 2 21 28 17 43
-16 60 -37 19 -36 19 -54 -7z"/>
<path d="M5027 4272 c-32 -33 -33 -44 -8 -80 15 -21 23 -64 36 -191 9 -91 20
-172 26 -182 26 -50 18 -49 561 -49 l508 0 0 35 c0 28 -5 37 -23 44 -13 5 -57
34 -98 65 -107 82 -189 120 -235 112 -32 -6 -92 -51 -82 -61 5 -5 58 -13 94
-14 19 -1 54 -16 85 -37 102 -69 128 -64 -339 -64 l-423 0 -13 33 c-8 17 -19
97 -26 177 -10 125 -26 240 -34 240 -1 0 -14 -13 -29 -28z"/>
<path d="M4020 4185 c-8 -9 -13 -32 -12 -51 2 -30 -3 -38 -44 -66 -91 -63
-144 -109 -144 -123 0 -18 46 -43 97 -51 35 -5 44 -2 77 26 20 18 38 31 40 29
1 -2 14 -35 27 -74 l24 -70 105 2 c81 1 116 6 153 22 l48 21 37 -25 c34 -23
45 -25 161 -25 121 0 126 1 152 26 l27 26 35 -26 c29 -22 44 -26 100 -26 l67
0 0 40 c0 36 -42 140 -72 177 -7 8 -38 -9 -114 -62 l-105 -73 -106 -7 c-125
-8 -141 0 -91 52 60 62 9 116 -108 115 -78 -1 -100 -12 -107 -54 -6 -40 0 -53
18 -38 18 15 52 4 65 -20 8 -15 6 -21 -11 -30 -25 -14 -200 -36 -221 -28 -10
4 -24 51 -43 150 -15 78 -31 151 -35 161 -6 17 -7 18 -20 2z m8 -166 c5 -27
-26 -49 -69 -49 -51 0 -51 18 1 53 30 21 64 19 68 -4z m865 -82 c38 -58 12
-86 -43 -47 -34 24 -38 44 -12 59 26 16 38 13 55 -12z"/>
<path d="M6012 3688 c-19 -19 -14 -32 18 -56 l29 -22 16 29 c20 39 20 37 -16
50 -38 13 -33 13 -47 -1z"/>
<path d="M3316 3648 c-9 -42 -29 -319 -23 -324 2 -3 43 11 91 30 l86 34 257
-376 c141 -207 272 -400 292 -428 l35 -51 160 -7 c89 -3 382 -13 651 -22 270
-8 670 -21 890 -28 220 -8 401 -13 403 -11 2 2 -29 35 -70 74 l-73 70 -140 1
c-303 1 -1746 29 -1754 34 -5 3 -96 133 -202 288 -106 156 -230 338 -276 405
l-84 123 55 27 c31 15 56 30 56 34 0 7 -325 149 -341 149 -5 0 -11 -10 -13
-22z"/>
<path d="M4731 3554 l-22 -38 16 -146 c9 -80 20 -196 23 -256 l7 -109 19 48
c19 47 19 54 2 290 -10 133 -19 243 -21 245 -1 2 -12 -14 -24 -34z"/>
<path d="M2156 3475 c-3 -9 -6 -24 -5 -33 0 -9 5 -4 10 12 9 32 6 48 -5 21z"/>
<path d="M2172 3410 c0 -14 2 -19 5 -12 2 6 2 18 0 25 -3 6 -5 1 -5 -13z"/>
<path d="M4970 3368 c0 -24 10 -43 42 -75 40 -41 43 -47 46 -113 l4 -70 -86 0
c-68 0 -88 3 -92 15 -11 28 -24 15 -24 -24 0 -63 15 -71 136 -71 l104 0 0 38
c0 74 -19 202 -35 231 -19 37 -74 101 -86 101 -5 0 -9 -14 -9 -32z"/>
<path d="M6296 3307 c-16 -36 -16 -38 9 -75 17 -25 25 -50 25 -79 l0 -43 -85
0 -85 0 0 29 c0 82 -30 131 -80 131 -43 0 -62 -35 -62 -111 0 -75 22 -110 75
-122 21 -5 37 -13 37 -17 0 -20 -103 -129 -137 -145 -31 -15 -47 -16 -95 -9
-32 6 -58 7 -58 3 0 -14 124 -69 156 -69 59 0 129 83 155 183 l11 47 99 0 99
0 0 108 c0 92 -4 114 -24 157 l-24 50 -16 -38z m-184 -134 c10 -9 18 -27 18
-40 0 -18 -5 -23 -25 -23 -28 0 -49 31 -40 60 8 24 23 25 47 3z"/>
<path d="M5416 3261 c-5 -31 0 -50 22 -92 54 -105 26 -191 -88 -272 -54 -38
-56 -39 -126 -33 -39 3 -80 9 -90 12 -18 7 -18 6 1 -16 46 -53 155 -76 214
-45 44 22 108 101 130 159 l19 51 50 3 c42 2 55 8 76 33 l25 30 54 -31 c30
-17 68 -30 87 -30 l33 0 -6 53 c-6 62 -32 157 -50 181 -19 26 -39 13 -106 -69
-62 -74 -81 -85 -136 -75 -28 5 -30 9 -36 58 -6 47 -43 122 -60 122 -4 0 -9
-18 -13 -39z m339 -81 c33 -64 10 -91 -39 -45 -30 28 -33 43 -8 61 25 19 30
17 47 -16z"/>
<path d="M4367 3255 c-16 -34 -16 -38 2 -73 10 -20 22 -63 25 -94 8 -66 -4
-99 -58 -146 -30 -26 -46 -31 -110 -37 -88 -8 -115 -3 -152 28 -39 34 -45 115
-14 196 32 86 19 98 -15 15 -24 -57 -29 -83 -30 -154 0 -134 36 -173 156 -172
97 1 169 36 210 100 16 25 32 60 35 79 6 32 8 33 53 33 26 0 56 6 66 14 17 12
22 11 46 -6 19 -14 35 -19 53 -14 25 6 26 9 26 80 0 74 -17 176 -30 176 -4 0
-12 -12 -19 -26 -10 -22 -9 -30 5 -45 9 -10 17 -35 18 -56 1 -32 -2 -38 -22
-41 -18 -3 -26 4 -37 32 -8 19 -15 51 -15 71 0 19 -5 35 -11 35 -6 0 -9 -22
-8 -54 3 -71 -10 -86 -72 -86 -46 0 -49 1 -49 26 0 39 -22 154 -30 154 -3 0
-14 -16 -23 -35z"/>
<path d="M6247 2929 c-13 -31 -13 -36 6 -56 11 -13 24 -23 28 -23 8 0 43 60
37 63 -2 1 -15 13 -30 26 l-27 23 -14 -33z"/>
<path d="M2588 2896 c-22 -9 -25 -15 -16 -24 16 -16 40 -15 63 1 14 11 15 16
5 22 -9 6 -11 4 -5 -5 5 -8 3 -11 -6 -8 -8 3 -13 11 -11 17 1 6 1 11 0 10 -2
0 -15 -6 -30 -13z m27 -16 c3 -5 -1 -10 -9 -10 -9 0 -16 5 -16 10 0 6 4 10 9
10 6 0 13 -4 16 -10z"/>
<path d="M10 2133 c1 -5 23 -35 50 -68 28 -33 61 -76 74 -95 63 -89 144 -185
159 -188 15 -3 17 13 17 171 0 131 3 177 13 180 6 3 -61 6 -150 6 -90 1 -163
-2 -163 -6z"/>
<path d="M500 1812 c0 -288 2 -330 16 -351 16 -22 16 -25 0 -51 -14 -25 -16
-71 -16 -374 l0 -346 355 0 355 0 0 725 0 725 -355 0 -355 0 0 -328z"/>
<path d="M7216 2125 c-2 -7 2 -12 10 -12 8 0 14 4 14 8 0 4 10 10 23 12 13 3
10 4 -10 4 -18 -1 -34 -6 -37 -12z"/>
<path d="M7404 2124 c8 -20 8 -1412 1 -1425 -8 -12 305 -12 325 1 13 9 13 10
0 10 -13 0 -13 1 0 10 13 9 13 10 0 10 -9 0 -11 3 -5 8 6 4 10 21 9 37 -1 17
-2 327 -3 689 -1 525 1 661 11 668 7 4 -67 8 -165 7 -152 -1 -178 -3 -173 -15z"/>
<path d="M7945 1420 c0 -713 0 -721 20 -726 11 -3 76 -3 145 -2 l125 3 0 715
c0 465 3 718 10 722 6 4 -60 8 -145 8 l-155 0 0 -720z"/>
<path d="M8475 2134 c11 -4 10 -428 -1 -445 -3 -6 -1 -16 6 -22 10 -9 11 -9 5
3 -7 13 -6 13 7 2 13 -10 18 -8 34 15 9 16 47 62 83 104 36 41 98 115 136 164
39 48 87 107 108 130 20 23 37 45 37 49 0 3 -96 6 -212 5 -117 0 -208 -2 -203
-5z"/>
<path d="M4408 2032 c-16 -2 -28 -9 -28 -16 0 -8 19 -12 58 -11 42 0 74 -8
122 -29 53 -24 83 -30 162 -34 61 -3 98 -1 98 5 0 6 -40 13 -89 16 -64 4 -105
13 -152 33 -68 29 -126 41 -171 36z"/>
<path d="M5473 2029 c-53 -15 -38 -24 39 -24 64 0 82 -4 147 -38 99 -50 161
-67 243 -67 99 0 83 17 -20 22 -80 4 -97 8 -186 51 -53 26 -116 51 -139 57
-48 11 -42 11 -84 -1z"/>
<path d="M4868 2018 c-16 -5 -28 -14 -28 -19 0 -11 7 -11 49 1 43 12 98 -1
206 -49 71 -31 92 -35 184 -39 75 -3 102 -1 100 7 -3 7 -39 12 -99 14 -84 3
-104 7 -175 39 -127 57 -180 68 -237 46z"/>
<path d="M5809 1979 l-24 -21 25 7 c65 18 89 15 192 -19 106 -36 141 -42 172
-30 26 10 8 24 -23 18 -18 -4 -68 7 -139 30 -129 42 -170 45 -203 15z"/>
<path d="M4093 1983 c-7 -2 -13 -12 -13 -20 0 -12 6 -13 23 -7 42 14 102 6
177 -26 127 -53 270 -86 270 -62 0 4 -35 16 -77 26 -42 10 -121 35 -175 57
-93 37 -166 48 -205 32z"/>
<path d="M5163 1858 c-13 -6 -23 -14 -23 -17 0 -3 35 -6 77 -6 71 0 87 -4 173
-44 85 -40 104 -45 187 -49 76 -4 93 -2 93 10 0 11 -13 13 -62 10 -73 -4 -129
11 -245 62 -88 40 -165 53 -200 34z"/>
<path d="M4750 1817 c0 -10 20 -18 68 -27 37 -7 116 -28 175 -46 76 -24 128
-34 173 -34 87 0 81 16 -9 23 -41 3 -113 18 -163 35 -49 17 -118 35 -153 42
-34 6 -69 14 -77 17 -8 3 -14 -1 -14 -10z"/>
<path d="M7212 1755 c0 -16 2 -22 5 -12 2 9 2 23 0 30 -3 6 -5 -1 -5 -18z"/>
<path d="M7206 1702 c5 -4 12 -11 15 -15 3 -5 9 -2 12 5 3 9 -3 14 -15 15 -11
1 -16 -1 -12 -5z"/>
<path d="M2693 1443 c-18 -7 -16 -30 4 -37 21 -8 38 8 30 28 -7 16 -13 18 -34
9z"/>
<path d="M3613 1434 c-9 -23 13 -40 32 -24 12 10 13 16 4 26 -15 18 -28 18
-36 -2z"/>
<path d="M4316 1436 c-22 -10 -25 -14 -12 -19 11 -4 16 -18 16 -42 0 -35 -1
-36 -29 -30 -55 12 -121 -49 -121 -112 0 -59 73 -108 121 -83 16 9 23 9 29 0
5 -8 16 -8 41 4 20 8 27 15 17 15 -16 1 -18 15 -18 141 0 77 -3 140 -7 139 -5
0 -21 -6 -37 -13z m-6 -126 c6 -11 10 -46 8 -78 -3 -56 -4 -57 -35 -60 -23 -2
-35 3 -47 20 -20 29 -21 87 0 116 19 28 60 29 74 2z"/>
<path d="M6415 1436 c-24 -10 -26 -13 -12 -19 12 -4 17 -18 17 -42 0 -35 -1
-36 -32 -30 -77 14 -140 -77 -105 -151 21 -43 60 -60 101 -45 20 7 32 7 36 1
4 -7 18 -6 39 1 28 10 31 13 17 21 -13 8 -16 30 -16 143 0 74 -3 135 -7 135
-5 -1 -21 -7 -38 -14z m-5 -126 c6 -11 10 -46 8 -78 -3 -56 -4 -57 -35 -60
-23 -2 -35 3 -47 20 -21 30 -21 96 1 120 22 24 60 23 73 -2z"/>
<path d="M2083 1425 c10 -7 16 -43 19 -119 5 -103 6 -111 31 -132 55 -47 149
-43 191 7 24 28 26 38 26 129 0 88 2 99 21 111 19 13 16 14 -30 14 -49 0 -50
-1 -30 -16 19 -14 21 -24 18 -112 -3 -82 -7 -100 -25 -117 -31 -31 -93 -37
-124 -12 -23 19 -25 28 -28 122 -3 65 0 106 7 113 19 19 13 22 -39 22 -36 0
-47 -3 -37 -10z"/>
<path d="M3941 1408 c-6 -17 -10 -33 -8 -34 2 -2 19 12 37 31 l34 35 -26 0
c-20 0 -29 -7 -37 -32z"/>
<path d="M4750 1432 c0 -2 7 -10 15 -18 11 -12 15 -40 15 -122 0 -109 -4 -125
-30 -135 -8 -3 32 -6 90 -6 115 -1 145 8 169 50 13 24 13 29 -3 54 -10 15 -27
30 -37 32 -17 5 -17 7 6 25 31 24 33 68 4 94 -17 15 -42 20 -125 24 -57 3
-104 4 -104 2z m159 -23 c34 -12 51 -51 34 -78 -11 -18 -84 -37 -107 -28 -12
5 -16 20 -16 55 0 27 3 52 7 55 10 10 46 8 82 -4z m33 -146 c51 -46 -13 -112
-93 -96 -27 5 -29 8 -29 58 0 28 3 55 8 59 12 12 94 -3 114 -21z"/>
<path d="M3734 1363 c-18 -19 -26 -33 -18 -33 11 0 14 -19 14 -78 0 -64 3 -82
19 -96 15 -14 23 -15 44 -5 14 6 28 18 31 25 7 17 -6 18 -22 2 -22 -22 -33 6
-30 78 3 63 5 69 28 75 l25 7 -27 1 c-22 1 -27 6 -30 29 l-3 29 -31 -34z"/>
<path d="M2436 1336 c-22 -10 -25 -14 -12 -19 24 -10 23 -142 -1 -156 -14 -8
-5 -10 37 -10 30 1 47 3 38 6 -15 4 -18 16 -18 74 0 64 2 70 24 81 46 20 56 6
56 -76 0 -63 -3 -75 -17 -79 -10 -3 7 -5 37 -6 32 0 50 3 42 8 -8 5 -14 34
-15 79 -4 104 -41 138 -101 91 l-26 -20 0 20 c0 24 -4 24 -44 7z"/>
<path d="M2688 1338 c-25 -9 -26 -11 -13 -25 23 -22 21 -139 -2 -152 -14 -8
-7 -10 32 -10 28 0 44 3 38 6 -9 3 -13 32 -13 93 0 49 -3 91 -7 93 -5 2 -20 0
-35 -5z"/>
<path d="M3085 1341 c-38 -16 -58 -49 -59 -97 -1 -40 3 -50 32 -75 18 -16 41
-29 52 -29 33 0 71 23 86 52 17 33 12 36 -16 8 -11 -11 -31 -20 -45 -20 -31 0
-75 41 -75 70 0 18 6 20 75 20 41 0 75 4 75 9 0 6 -10 21 -22 35 -25 28 -72
40 -103 27z m49 -17 c9 -3 16 -15 16 -25 0 -16 -8 -19 -45 -19 -48 0 -55 9
-29 34 16 17 33 20 58 10z"/>
<path d="M3258 1338 c-25 -9 -26 -11 -13 -25 23 -22 21 -139 -2 -152 -14 -8
-5 -10 37 -10 42 0 51 2 38 10 -14 8 -18 24 -18 72 0 70 12 92 42 76 21 -11
38 -4 38 16 0 20 -31 27 -55 11 -17 -11 -23 -12 -31 -1 -7 9 -16 10 -36 3z"/>
<path d="M3420 1330 c-23 -23 -26 -54 -7 -70 6 -6 30 -21 52 -34 50 -27 55
-59 10 -64 -23 -3 -35 3 -52 25 l-23 28 0 -32 c0 -30 3 -32 44 -38 48 -8 79 4
96 35 16 30 -3 56 -61 86 -56 28 -64 57 -18 62 19 2 33 -5 48 -24 l21 -27 0
34 c0 33 -1 34 -45 37 -34 2 -50 -3 -65 -18z"/>
<path d="M3611 1335 c-27 -9 -31 -13 -18 -18 26 -10 25 -153 0 -160 -10 -3 6
-5 36 -6 46 -1 52 1 38 12 -13 9 -17 32 -19 98 l-3 86 -34 -12z"/>
<path d="M3905 1341 c-54 -23 -79 -95 -52 -148 19 -35 66 -58 102 -49 29 7 65
43 65 65 0 11 -5 9 -20 -7 -12 -12 -32 -22 -46 -22 -30 0 -74 41 -74 70 0 18
6 20 70 20 61 0 70 2 70 18 0 40 -71 72 -115 53z m53 -23 c25 -25 13 -38 -33
-38 -30 0 -45 4 -45 13 0 19 21 37 45 37 12 0 26 -5 33 -12z"/>
<path d="M4461 1337 c-31 -18 -50 -54 -51 -95 0 -44 14 -68 50 -87 43 -22 68
-19 101 14 34 35 40 65 6 33 -13 -12 -35 -22 -48 -22 -31 0 -69 38 -69 68 0
21 5 22 70 22 76 0 85 9 53 49 -22 27 -80 36 -112 18z m67 -19 c25 -25 13 -38
-33 -38 -30 0 -45 4 -45 13 0 19 21 37 45 37 12 0 26 -5 33 -12z"/>
<path d="M5124 1341 c-63 -27 -84 -116 -40 -164 44 -47 108 -48 151 -1 28 30
34 58 23 101 -13 51 -84 85 -134 64z m72 -32 c24 -27 27 -125 4 -139 -44 -28
-85 4 -97 74 -11 70 49 113 93 65z"/>
<path d="M5556 1337 c-20 -7 -25 -12 -15 -18 8 -4 15 -34 17 -72 3 -50 1 -67
-13 -80 -15 -16 -13 -17 37 -16 29 1 45 3 35 6 -15 4 -17 14 -15 76 3 68 4 72
31 81 37 13 45 2 50 -71 4 -66 1 -77 -23 -86 -8 -3 10 -5 40 -5 30 0 49 2 43
5 -9 3 -13 28 -13 74 0 64 2 70 24 81 46 20 56 6 56 -76 0 -63 -3 -75 -17 -79
-10 -3 6 -5 35 -6 49 -1 52 0 38 15 -12 11 -16 35 -16 84 0 64 -2 71 -26 87
-26 16 -28 16 -65 -4 -37 -20 -38 -20 -55 -2 -22 25 -45 24 -78 -2 -21 -16
-26 -17 -26 -5 0 21 -11 25 -44 13z"/>
<path d="M5970 1343 c-54 -21 -82 -89 -60 -144 13 -31 55 -59 89 -59 25 0 81
47 81 68 0 13 -4 11 -20 -6 -12 -12 -32 -22 -46 -22 -30 0 -74 41 -74 70 0 18
6 20 70 20 61 0 70 2 70 18 0 37 -69 71 -110 55z m48 -25 c25 -25 13 -38 -33
-38 -30 0 -45 4 -45 13 0 19 21 37 45 37 12 0 26 -5 33 -12z"/>
<path d="M6136 1338 c-18 -7 -24 -13 -16 -18 18 -11 20 -138 3 -156 -12 -12
-7 -14 39 -13 29 1 45 3 36 6 -15 4 -18 16 -18 72 0 74 12 96 42 80 21 -11 38
-4 38 16 0 20 -31 27 -55 11 -17 -11 -23 -12 -31 -1 -7 10 -16 10 -38 3z"/>
<path d="M6561 1337 c-82 -48 -61 -179 31 -194 32 -5 41 -1 68 25 35 36 42 67
7 34 -13 -12 -35 -22 -48 -22 -31 0 -69 38 -69 68 0 21 5 22 70 22 76 0 85 9
53 49 -22 27 -80 36 -112 18z m67 -19 c25 -25 13 -38 -33 -38 -30 0 -45 4 -45
13 0 19 21 37 45 37 12 0 26 -5 33 -12z"/>
<path d="M6753 1335 c-15 -10 -23 -26 -23 -45 0 -25 7 -33 49 -55 56 -28 64
-36 55 -59 -10 -26 -60 -20 -83 10 l-21 27 0 -31 c0 -27 4 -31 39 -37 60 -10
96 11 96 55 0 32 -4 37 -50 60 -35 18 -50 31 -50 45 0 33 45 32 72 -2 l23 -28
0 33 c0 20 -5 32 -14 32 -7 0 -26 2 -42 6 -18 3 -37 -1 -51 -11z"/>
<path d="M2791 1328 c9 -7 33 -52 55 -100 21 -48 42 -88 45 -88 3 0 23 39 44
88 21 48 45 93 54 100 12 10 9 12 -20 12 -21 0 -29 -3 -21 -8 9 -7 6 -23 -16
-71 l-29 -63 -27 63 c-21 49 -24 64 -14 70 8 5 -7 9 -36 9 -41 0 -47 -2 -35
-12z"/>
<path d="M5298 1333 c8 -3 12 -27 12 -68 0 -35 4 -75 10 -89 14 -37 54 -44 91
-17 l29 22 0 -21 c0 -17 4 -20 23 -14 12 3 29 10 37 15 13 7 12 8 -2 9 -16 0
-18 11 -18 85 l0 85 -37 0 c-32 0 -35 -2 -19 -13 14 -10 16 -25 14 -77 -3 -61
-5 -65 -31 -75 -42 -14 -57 12 -57 97 l0 68 -32 -1 c-18 0 -27 -3 -20 -6z"/>
<path d="M8477 1192 c2 -9 5 -125 6 -257 l2 -240 203 -3 c111 -1 202 0 202 3
0 3 -33 47 -72 99 -40 51 -115 148 -167 215 -114 149 -153 195 -168 198 -6 1
-9 -5 -6 -15z"/>
<path d="M277 1073 c-76 -112 -125 -182 -144 -207 -10 -13 -25 -34 -33 -46 -8
-12 -30 -42 -48 -66 -18 -24 -30 -49 -27 -55 8 -11 234 -10 275 2 14 4 21 8
15 8 -11 1 -10 364 0 382 4 5 4 9 0 9 -3 0 -1 9 5 20 21 40 2 18 -43 -47z"/>
<path d="M2697 934 c-11 -11 5 -34 24 -34 12 0 19 7 19 20 0 19 -28 28 -43 14z"/>
<path d="M3625 930 c-4 -7 -3 -16 3 -22 14 -14 45 -2 40 15 -6 16 -34 21 -43
7z"/>
<path d="M4516 909 c-14 -17 -26 -39 -26 -50 0 -12 -7 -19 -20 -19 -11 0 -20
-4 -20 -10 0 -5 9 -10 20 -10 18 0 20 -7 20 -80 0 -74 -2 -81 -22 -90 -17 -6
-5 -9 47 -9 63 -1 67 1 45 12 -23 11 -25 19 -28 90 l-3 77 31 0 c16 0 30 5 30
10 0 6 -14 10 -31 10 -29 0 -30 2 -27 36 4 51 29 66 61 36 26 -25 47 -29 47
-9 0 23 -23 37 -61 37 -29 0 -43 -7 -63 -31z"/>
<path d="M6398 933 c-22 -6 -23 -19 -3 -27 9 -3 15 -18 15 -40 0 -34 -1 -35
-30 -30 -45 10 -76 -3 -99 -40 -57 -91 20 -193 110 -146 14 8 19 7 19 -1 0 -7
10 -9 28 -4 33 8 53 25 29 25 -15 0 -17 15 -17 135 0 145 1 142 -52 128z m-8
-123 c29 -29 29 -125 0 -140 -68 -37 -121 100 -56 145 27 19 32 19 56 -5z"/>
<path d="M2090 923 c26 -10 30 -26 30 -126 0 -95 1 -99 29 -128 26 -26 36 -29
91 -29 55 0 65 3 91 29 28 29 29 32 29 130 0 92 2 101 22 115 21 15 20 16 -32
15 -43 0 -50 -2 -32 -9 21 -9 22 -15 22 -110 0 -94 -2 -103 -25 -125 -18 -19
-35 -25 -68 -25 -62 0 -77 20 -84 113 -8 100 1 144 30 150 12 2 -9 5 -48 5
-38 0 -63 -2 -55 -5z"/>
<path d="M4738 920 c21 -9 22 -14 22 -135 0 -121 -1 -126 -22 -135 -16 -7 10
-9 89 -7 95 2 116 5 140 23 40 30 43 75 7 103 l-27 21 21 23 c28 30 28 49 -2
84 -24 27 -27 28 -138 30 -79 2 -106 0 -90 -7z m182 -30 c42 -42 8 -90 -65
-90 l-45 0 0 55 0 55 45 0 c32 0 51 -6 65 -20z m4 -131 c14 -11 26 -29 26 -39
0 -31 -47 -60 -96 -60 l-44 0 0 60 0 60 44 0 c29 0 52 -7 70 -21z"/>
<path d="M3770 889 c0 -6 -14 -24 -31 -40 -27 -25 -29 -29 -11 -29 18 0 20 -7
19 -81 0 -59 4 -83 14 -90 23 -14 45 -10 65 12 18 20 18 20 -9 14 l-27 -7 0
76 c0 69 2 76 20 76 11 0 20 5 20 10 0 6 -9 10 -20 10 -16 0 -20 7 -20 30 0
17 -4 30 -10 30 -5 0 -10 -5 -10 -11z"/>
<path d="M2440 828 c-21 -9 -22 -12 -7 -15 14 -4 17 -16 17 -78 0 -60 -3 -76
-17 -84 -14 -8 -5 -10 37 -10 42 0 51 2 38 10 -14 8 -18 24 -18 73 0 63 6 76
42 89 31 11 48 -19 48 -85 0 -46 -4 -64 -17 -74 -16 -12 -11 -13 37 -13 42 0
51 2 38 10 -14 8 -18 24 -18 77 0 103 -40 139 -105 96 -23 -15 -25 -15 -25 0
0 18 -14 19 -50 4z"/>
<path d="M2690 828 c-21 -9 -22 -12 -7 -15 14 -4 17 -16 17 -78 0 -60 -3 -76
-17 -84 -14 -8 -5 -10 37 -10 42 0 51 2 38 10 -15 8 -18 25 -18 99 0 96 -2 99
-50 78z"/>
<path d="M2813 807 c12 -18 36 -63 52 -100 17 -36 34 -65 40 -64 5 2 25 40 45
84 20 44 42 88 49 97 12 14 10 16 -20 15 -19 0 -28 -3 -21 -6 17 -7 16 -13
-15 -79 l-27 -59 -28 60 c-26 56 -27 61 -11 73 14 10 9 12 -35 12 l-51 0 22
-33z"/>
<path d="M3069 811 c-63 -63 -24 -171 61 -171 30 0 44 6 64 31 14 17 26 36 26
42 0 7 -9 1 -19 -12 -35 -46 -107 -25 -126 37 -6 21 -4 22 69 22 85 0 96 11
51 55 -35 36 -88 34 -126 -4z m85 3 c27 -26 18 -34 -34 -34 -47 0 -50 1 -40
19 17 33 50 39 74 15z"/>
<path d="M3260 828 c-21 -9 -22 -12 -7 -15 14 -4 17 -16 17 -78 0 -60 -3 -76
-17 -84 -14 -8 -5 -10 37 -10 48 0 53 1 38 13 -14 10 -18 28 -18 73 0 68 11
84 52 76 26 -5 29 -3 26 13 -4 25 -35 30 -59 8 -17 -16 -19 -16 -19 -1 0 19
-14 21 -50 5z"/>
<path d="M3425 816 c-24 -36 -12 -59 45 -90 51 -28 66 -58 34 -70 -27 -10 -35
-7 -65 25 l-29 31 0 -34 0 -35 55 -2 c43 -1 59 3 75 19 37 37 21 73 -47 99
-45 18 -59 37 -43 56 18 21 37 19 65 -10 l25 -24 0 28 c0 26 -3 28 -49 30 -43
2 -52 -1 -66 -23z"/>
<path d="M3610 828 c-21 -9 -22 -12 -7 -15 14 -4 17 -16 17 -77 0 -43 -5 -77
-12 -84 -9 -9 -1 -12 36 -12 39 0 46 3 37 13 -6 8 -11 53 -12 100 -1 94 -5 99
-59 75z"/>
<path d="M3850 830 c0 -5 4 -10 8 -10 12 0 92 -154 92 -176 -1 -30 -26 -56
-52 -53 -33 5 -52 -9 -37 -27 6 -8 19 -14 28 -14 33 1 61 38 112 150 28 63 56
121 61 128 8 9 3 12 -22 12 -27 0 -30 -2 -21 -14 9 -11 6 -26 -16 -70 l-27
-55 -28 51 c-31 57 -34 74 -15 81 6 3 -9 6 -35 6 -27 1 -48 -3 -48 -9z"/>
<path d="M4263 828 c-12 -6 -29 -26 -39 -46 -33 -69 14 -142 91 -142 69 0 114
56 101 124 -12 64 -88 95 -153 64z m86 -24 c39 -49 23 -154 -24 -154 -33 0
-58 36 -63 92 -4 49 -2 57 19 72 32 22 44 20 68 -10z"/>
<path d="M5092 824 c-83 -58 -49 -184 50 -184 50 0 74 13 93 50 24 46 19 87
-14 121 -34 33 -91 40 -129 13z m82 -13 c56 -62 31 -177 -34 -156 -47 15 -67
118 -30 155 25 25 42 25 64 1z"/>
<path d="M5283 829 c13 -8 17 -24 17 -77 0 -80 17 -112 59 -112 16 0 34 7 41
15 16 20 30 19 30 -1 0 -13 6 -15 28 -9 33 8 53 25 29 25 -15 0 -17 12 -17 85
l0 85 -37 0 c-31 -1 -35 -3 -20 -11 13 -8 17 -24 17 -73 0 -63 -6 -76 -42 -89
-33 -12 -48 19 -48 99 l0 74 -37 0 c-31 -1 -35 -3 -20 -11z"/>
<path d="M5530 828 c-21 -9 -22 -12 -7 -15 14 -4 17 -16 17 -78 0 -60 -3 -76
-17 -84 -14 -8 -6 -10 35 -11 49 0 52 1 37 16 -12 12 -15 32 -13 77 3 54 6 63
27 74 45 22 61 2 61 -77 0 -55 -4 -71 -17 -79 -14 -8 -5 -10 36 -11 47 0 52 2
37 13 -14 10 -16 25 -14 77 3 57 6 66 27 77 45 22 61 2 61 -77 0 -55 -4 -71
-17 -79 -14 -8 -5 -10 37 -10 42 0 51 2 38 10 -15 8 -18 24 -18 84 0 54 -4 78
-16 89 -20 21 -63 20 -93 0 -22 -16 -24 -16 -33 0 -11 20 -58 21 -84 1 -25
-19 -34 -19 -34 0 0 17 -15 18 -50 3z"/>
<path d="M5919 811 c-61 -62 -22 -171 62 -171 43 0 89 34 89 66 0 13 -4 12
-18 -6 -37 -45 -122 -16 -122 41 0 17 8 19 70 19 61 0 70 2 70 18 0 31 -42 62
-84 62 -28 0 -45 -7 -67 -29z m85 3 c26 -25 19 -34 -29 -34 -25 0 -45 4 -45 9
0 14 30 41 45 41 7 0 21 -7 29 -16z"/>
<path d="M6110 828 c-21 -9 -22 -12 -7 -15 14 -4 17 -16 17 -78 0 -60 -3 -76
-17 -84 -14 -8 -4 -10 42 -11 57 0 58 1 37 16 -18 13 -22 25 -22 73 0 64 15
87 49 76 26 -8 42 1 34 20 -7 20 -42 19 -65 -2 -17 -15 -18 -15 -18 0 0 19
-14 21 -50 5z"/>
<path d="M6526 814 c-36 -37 -37 -114 -1 -149 37 -38 95 -35 129 6 14 17 26
36 26 42 0 7 -8 2 -18 -11 -26 -34 -78 -33 -109 2 -40 47 -32 56 52 56 84 0
95 11 50 55 -34 35 -93 34 -129 -1z m92 -11 c14 -23 14 -23 -37 -23 -48 0 -51
1 -41 19 19 37 55 38 78 4z"/>
<path d="M6730 820 c-35 -35 -26 -57 40 -92 51 -26 66 -62 30 -73 -25 -8 -70
18 -70 40 0 8 -4 15 -10 15 -5 0 -10 -15 -10 -33 0 -34 0 -34 51 -36 116 -4
138 83 31 120 -40 14 -58 42 -37 59 20 17 62 5 70 -20 9 -30 25 -24 25 8 0 28
-2 29 -50 31 -38 1 -54 -3 -70 -19z"/>
</g>
</svg>
